<svg width="24" height="18" viewBox="0 0 24 18" fill="none" xmlns="http://www.w3.org/2000/svg">
<path d="M20.3169 1.49242C18.787 0.802439 17.147 0.292454 15.432 0.0024618C15.4168 -0.0004702 15.401 0.00141929 15.3868 0.00786898C15.3727 0.0143187 15.3609 0.0250095 15.353 0.0384608C15.1431 0.40745 14.9091 0.888437 14.7451 1.26843C12.9262 0.996671 11.0771 0.996671 9.25822 1.26843C9.07556 0.847299 8.86958 0.436674 8.64124 0.0384608C8.6335 0.0248439 8.62179 0.0139112 8.60767 0.0071218C8.59356 0.000332361 8.57771 -0.00199105 8.56224 0.000461765C6.84829 0.290454 5.20833 0.80044 3.67738 1.49142C3.66421 1.49694 3.65304 1.50637 3.64538 1.51842C0.533466 6.09329 -0.31951 10.5552 0.0994778 14.961C0.100644 14.9718 0.103993 14.9823 0.109322 14.9917C0.114652 15.0012 0.121849 15.0095 0.130477 15.016C1.94682 16.3384 3.97271 17.3458 6.12331 17.996C6.1383 18.0006 6.15434 18.0006 6.16932 17.9959C6.18431 17.9913 6.19754 17.9822 6.20731 17.97C6.66929 17.35 7.08128 16.695 7.43327 16.007C7.45427 15.967 7.43427 15.919 7.39227 15.903C6.7463 15.6598 6.12039 15.3662 5.52033 15.025C5.50954 15.0189 5.50046 15.0102 5.49388 14.9996C5.48731 14.9891 5.48345 14.9771 5.48266 14.9647C5.48187 14.9523 5.48416 14.9399 5.48934 14.9286C5.49452 14.9173 5.50242 14.9075 5.51233 14.9C5.63832 14.807 5.76432 14.7101 5.88432 14.6131C5.89512 14.6043 5.90813 14.5988 5.9219 14.597C5.93567 14.5952 5.94966 14.5973 5.96231 14.6031C9.8892 16.367 14.1421 16.367 18.023 14.6031C18.0357 14.597 18.0498 14.5946 18.0638 14.5962C18.0777 14.5978 18.091 14.6033 18.102 14.6121C18.222 14.71 18.347 14.807 18.474 14.9C18.484 14.9074 18.492 14.9171 18.4973 14.9282C18.5027 14.9394 18.5052 14.9518 18.5046 14.9642C18.504 14.9765 18.5003 14.9886 18.4939 14.9992C18.4875 15.0098 18.4786 15.0187 18.468 15.025C17.87 15.369 17.248 15.66 16.595 15.902C16.585 15.9057 16.5758 15.9114 16.5682 15.9188C16.5606 15.9263 16.5546 15.9353 16.5507 15.9452C16.5469 15.9552 16.5452 15.9658 16.5457 15.9765C16.5463 15.9871 16.5491 15.9975 16.554 16.007C16.914 16.694 17.326 17.348 17.779 17.969C17.7884 17.9817 17.8015 17.9912 17.8166 17.9962C17.8316 18.0012 17.8478 18.0015 17.863 17.997C20.0173 17.3486 22.0465 16.3408 23.8648 15.016C23.8737 15.0098 23.8811 15.0018 23.8866 14.9925C23.8922 14.9832 23.8956 14.9728 23.8968 14.962C24.3968 9.86819 23.0588 5.44231 20.3479 1.52042C20.3413 1.50767 20.3303 1.49774 20.3169 1.49242ZM8.02026 12.2781C6.83829 12.2781 5.86332 11.2091 5.86332 9.89818C5.86332 8.58622 6.81929 7.51825 8.02026 7.51825C9.23022 7.51825 10.1962 8.59522 10.1772 9.89818C10.1772 11.2101 9.22122 12.2781 8.02026 12.2781ZM15.995 12.2781C14.8121 12.2781 13.8381 11.2091 13.8381 9.89818C13.8381 8.58622 14.7931 7.51825 15.995 7.51825C17.205 7.51825 18.171 8.59522 18.152 9.89818C18.152 11.2101 17.206 12.2781 15.995 12.2781Z" fill="black"/>
</svg>
