<svg width="22" height="18" viewBox="0 0 22 18" fill="none" xmlns="http://www.w3.org/2000/svg">
<path d="M22 2.28763C21.191 2.64042 20.3219 2.8788 19.4082 2.98654C20.3509 2.43141 21.0562 1.5577 21.3925 0.528446C20.5068 1.04618 19.5374 1.41061 18.5265 1.60589C17.8467 0.891596 16.9462 0.418152 15.965 0.25906C14.9837 0.0999686 13.9766 0.26413 13.0999 0.726059C12.2231 1.18799 11.5259 1.92184 11.1164 2.81368C10.7069 3.70551 10.6081 4.70544 10.8353 5.65822C9.04057 5.56954 7.28485 5.11048 5.68208 4.31085C4.07931 3.51121 2.66531 2.38886 1.53184 1.01663C1.14428 1.67454 0.921431 2.43733 0.921431 3.2497C0.920998 3.98102 1.104 4.70114 1.45421 5.34617C1.80442 5.9912 2.311 6.54118 2.92901 6.94733C2.21228 6.92489 1.51137 6.73431 0.884612 6.39145V6.44866C0.88454 7.47436 1.24508 8.46851 1.90505 9.2624C2.56502 10.0563 3.48377 10.601 4.50542 10.8042C3.84054 10.9813 3.14346 11.0074 2.46684 10.8805C2.75508 11.763 3.31656 12.5348 4.07267 13.0877C4.82878 13.6407 5.74166 13.9471 6.68352 13.9641C5.08466 15.1992 3.11008 15.8692 1.07742 15.8663C0.71736 15.8664 0.357601 15.8457 0 15.8043C2.06326 17.1098 4.46505 17.8026 6.918 17.7999C15.2215 17.7999 19.7609 11.0321 19.7609 5.1624C19.7609 4.9717 19.756 4.7791 19.7473 4.5884C20.6302 3.96003 21.3924 3.18191 21.9981 2.29049L22 2.28763Z" fill="#FFC748"/>
</svg>
